/* XPM */
static char * gfract_xpm[] = {
"48 48 383 2",
"  	c None",
". 	c #3F0303",
"+ 	c #400303",
"@ 	c #440303",
"# 	c #470303",
"$ 	c #490303",
"% 	c #4A0303",
"& 	c #4B0303",
"* 	c #4E0303",
"= 	c #550303",
"- 	c #620303",
"; 	c #670303",
"> 	c #540303",
", 	c #510303",
"' 	c #420303",
") 	c #460303",
"! 	c #480303",
"~ 	c #4F0303",
"{ 	c #560303",
"] 	c #610303",
"^ 	c #881103",
"/ 	c #5E0303",
"( 	c #580303",
"_ 	c #5A0303",
": 	c #500303",
"< 	c #410303",
"[ 	c #570303",
"} 	c #5D0303",
"| 	c #730303",
"1 	c #740303",
"2 	c #7A0303",
"3 	c #4D0303",
"4 	c #520303",
"5 	c #590303",
"6 	c #680303",
"7 	c #8F0303",
"8 	c #7E0303",
"9 	c #600303",
"0 	c #450303",
"a 	c #4C0303",
"b 	c #630303",
"c 	c #8B0503",
"d 	c #BC0A03",
"e 	c #7F0303",
"f 	c #530303",
"g 	c #660303",
"h 	c #8A0303",
"i 	c #7B0303",
"j 	c #B21D03",
"k 	c #671D07",
"l 	c #AD2A0A",
"m 	c #6C0303",
"n 	c #6E0303",
"o 	c #5B0303",
"p 	c #B21807",
"q 	c #B21A03",
"r 	c #681A07",
"s 	c #4A0A03",
"t 	c #8B1A03",
"u 	c #A10803",
"v 	c #990303",
"w 	c #6B0303",
"x 	c #B31503",
"y 	c #4A0D0C",
"z 	c #3B0303",
"A 	c #972E08",
"B 	c #7C0303",
"C 	c #5F0303",
"D 	c #700303",
"E 	c #BC2F13",
"F 	c #8E220D",
"G 	c #8B1304",
"H 	c #750303",
"I 	c #640303",
"J 	c #6F0303",
"K 	c #991105",
"L 	c #6C2A0B",
"M 	c #420903",
"N 	c #A01F0A",
"O 	c #720303",
"P 	c #690303",
"Q 	c #6A0303",
"R 	c #A50E03",
"S 	c #AF0C03",
"T 	c #840303",
"U 	c #830303",
"V 	c #DC6F22",
"W 	c #A01403",
"X 	c #B84D1D",
"Y 	c #86180A",
"Z 	c #8A190A",
"` 	c #4A0403",
" .	c #720E0B",
"..	c #993006",
"+.	c #A11C0D",
"@.	c #B43E1B",
"#.	c #910F03",
"$.	c #B71C0D",
"%.	c #980703",
"&.	c #BB420F",
"*.	c #AD3F12",
"=.	c #9F1203",
"-.	c #950F03",
";.	c #6C1307",
">.	c #6B130A",
",.	c #420D06",
"'.	c #581C05",
").	c #833118",
"!.	c #95300F",
"~.	c #810D06",
"{.	c #A71F03",
"].	c #850803",
"^.	c #910303",
"/.	c #980603",
"(.	c #7D2707",
"_.	c #9A2F0D",
":.	c #55170F",
"<.	c #8E1F04",
"[.	c #AE2411",
"}.	c #701B0B",
"|.	c #8B2303",
"1.	c #AD0603",
"2.	c #7C0D03",
"3.	c #A81C09",
"4.	c #510B03",
"5.	c #5F0403",
"6.	c #6C2509",
"7.	c #930403",
"8.	c #5C0303",
"9.	c #9F0A03",
"0.	c #9A0E03",
"a.	c #B42B0F",
"b.	c #621E0D",
"c.	c #66190C",
"d.	c #9D2406",
"e.	c #CE2908",
"f.	c #7C1F09",
"g.	c #78361D",
"h.	c #420703",
"i.	c #901907",
"j.	c #8A1307",
"k.	c #9C180D",
"l.	c #771C09",
"m.	c #490903",
"n.	c #992316",
"o.	c #790703",
"p.	c #7B0D03",
"q.	c #6D0303",
"r.	c #760303",
"s.	c #770303",
"t.	c #650303",
"u.	c #C92E03",
"v.	c #A03005",
"w.	c #390303",
"x.	c #82280A",
"y.	c #9B3B11",
"z.	c #A81205",
"A.	c #800303",
"B.	c #9E0403",
"C.	c #920303",
"D.	c #710303",
"E.	c #B10D0B",
"F.	c #910703",
"G.	c #AD1E07",
"H.	c #5D1C09",
"I.	c #530B03",
"J.	c #931A03",
"K.	c #AD0903",
"L.	c #942B04",
"M.	c #AC1D04",
"N.	c #B21E0F",
"O.	c #8C2D13",
"P.	c #BB491E",
"Q.	c #BF3B1A",
"R.	c #9B0303",
"S.	c #AB3F14",
"T.	c #420503",
"U.	c #581709",
"V.	c #8D1906",
"W.	c #AB1C09",
"X.	c #590F04",
"Y.	c #6F2616",
"Z.	c #4A1005",
"`.	c #7B1A07",
" +	c #B72713",
".+	c #8D0803",
"++	c #731E12",
"@+	c #5A1A09",
"#+	c #992103",
"$+	c #890803",
"%+	c #A91107",
"&+	c #A41C0A",
"*+	c #420D09",
"=+	c #5E1206",
"-+	c #9E230A",
";+	c #A71A0C",
">+	c #521707",
",+	c #531708",
"'+	c #961703",
")+	c #820603",
"!+	c #A7260B",
"~+	c #7C1A03",
"{+	c #B32504",
"]+	c #530D03",
"^+	c #951603",
"/+	c #880303",
"(+	c #970403",
"_+	c #71200A",
":+	c #9C1D04",
"<+	c #740F09",
"[+	c #870303",
"}+	c #B2200B",
"|+	c #732303",
"1+	c #AA180B",
"2+	c #420B03",
"3+	c #4A0603",
"4+	c #611003",
"5+	c #7D1709",
"6+	c #980303",
"7+	c #A10D03",
"8+	c #5A1103",
"9+	c #4A0E03",
"0+	c #5B0D0A",
"a+	c #790803",
"b+	c #A20D03",
"c+	c #7F2C08",
"d+	c #701703",
"e+	c #3A0303",
"f+	c #862F10",
"g+	c #B81F0E",
"h+	c #AD2403",
"i+	c #B71E0A",
"j+	c #5A180A",
"k+	c #803216",
"l+	c #420D04",
"m+	c #952B0D",
"n+	c #860303",
"o+	c #780303",
"p+	c #920603",
"q+	c #90320A",
"r+	c #420D0B",
"s+	c #A41909",
"t+	c #7D1C09",
"u+	c #BF2F0A",
"v+	c #5B1708",
"w+	c #952C0F",
"x+	c #AF1706",
"y+	c #420603",
"z+	c #480B03",
"A+	c #861503",
"B+	c #810B03",
"C+	c #B21207",
"D+	c #62230E",
"E+	c #A01E03",
"F+	c #920803",
"G+	c #9D1109",
"H+	c #571106",
"I+	c #8C1406",
"J+	c #AE1103",
"K+	c #A1260E",
"L+	c #7C1B05",
"M+	c #570703",
"N+	c #752A10",
"O+	c #8F411E",
"P+	c #B72A0F",
"Q+	c #920E03",
"R+	c #9C3C1D",
"S+	c #571409",
"T+	c #9B1504",
"U+	c #730A03",
"V+	c #B40803",
"W+	c #B91503",
"X+	c #8D0C03",
"Y+	c #AC1B07",
"Z+	c #A11104",
"`+	c #A60A03",
" @	c #C86A29",
".@	c #4A170B",
"+@	c #8F0A03",
"@@	c #7A0403",
"#@	c #820303",
"$@	c #8C0303",
"%@	c #740503",
"&@	c #AB220A",
"*@	c #713109",
"=@	c #420D08",
"-@	c #902308",
";@	c #990503",
">@	c #790303",
",@	c #A01D06",
"'@	c #B01203",
")@	c #571B0F",
"!@	c #9F2113",
"~@	c #A01203",
"{@	c #850903",
"]@	c #A40A03",
"^@	c #5F1714",
"/@	c #450E0B",
"(@	c #691B0D",
"_@	c #A20F03",
":@	c #DA2203",
"<@	c #AD3117",
"[@	c #A5401A",
"}@	c #54170F",
"|@	c #941905",
"1@	c #A01303",
"2@	c #9C2B0F",
"3@	c #531805",
"4@	c #9B4307",
"5@	c #900603",
"6@	c #91240F",
"7@	c #500903",
"8@	c #67260D",
"9@	c #902608",
"0@	c #530D06",
"a@	c #680603",
"b@	c #880403",
"c@	c #921D0B",
"d@	c #62270C",
"e@	c #A92007",
"f@	c #96320F",
"g@	c #55170E",
"h@	c #420403",
"i@	c #79180F",
"j@	c #8D1909",
"k@	c #890D05",
"l@	c #AC200F",
"m@	c #A21703",
"n@	c #B01003",
"o@	c #A30803",
"p@	c #C61904",
"q@	c #B71F03",
"r@	c #8C0E04",
"s@	c #A63F12",
"t@	c #A93F19",
"u@	c #701D0F",
"v@	c #5A0603",
"w@	c #491706",
"x@	c #4A0F09",
"y@	c #621603",
"z@	c #6C170C",
"A@	c #8F2D09",
"B@	c #A92203",
"C@	c #AB2E15",
"D@	c #7D0703",
"E@	c #911104",
"F@	c #9A0803",
"G@	c #AD0E03",
"H@	c #7F0B03",
"I@	c #8D0B03",
"J@	c #951208",
"K@	c #9F2708",
"L@	c #4A0D03",
"M@	c #6D150B",
"N@	c #B02606",
"O@	c #870603",
"P@	c #890A03",
"Q@	c #7A0D06",
"R@	c #940F06",
"S@	c #9E1103",
"T@	c #4A1209",
"U@	c #922C10",
"V@	c #C7330C",
"W@	c #962C10",
"X@	c #8F0D03",
"Y@	c #A40B03",
"Z@	c #782C14",
"`@	c #4A0503",
" #	c #B12C0C",
".#	c #920903",
"+#	c #7D0303",
"@#	c #9F1603",
"##	c #8F0F06",
"$#	c #4A0F07",
"%#	c #B41208",
"&#	c #7F0503",
"*#	c #930603",
"=#	c #700D07",
"-#	c #A80903",
";#	c #9D1C03",
">#	c #9E0F04",
",#	c #9E0903",
"'#	c #430303",
". + @ # # # # # # # # # # # # # # # # # # $ % & & & & * = - ; > , * & & & % # # # # @ . . . . . ",
"' ) # # # # # # # # # # # # # # # # # ! % & & & & & * ~ { ] ^ / ( _ : & & & & $ # # # ) < . . . ",
"# # # # # # # # # # # # # # # # # # % & & & & & & * ~ ~ [ } | | 1 2 ( 3 & & & & $ # # # # @ . . ",
"# # # # # # # # # # # # # # # # ! % & & & & & & 3 ~ ~ 4 5 } 6 7 8 9 ( , 3 & & & & $ # # # # 0 . ",
"# # # # # # # # # # # # # # # $ & & & & & & & a ~ ~ : ( } b c d e 9 _ f ~ 3 & & & & $ # # # # ) ",
"# # # # # # # # # # # # # # % & & & & & & & a ~ ~ , [ g h i j k l m n [ ~ ~ * & & & & ! # # # # ",
"# # # # # # # # # # # # # % & & & & & & & 3 ~ : = [ o 2 p q r s t u v } f ~ ~ * a & & % # # # # ",
"# # # # # # # # # # # # % & & & & & & & * : = [ [ _ } w x y z z z A B } ( > ~ ~ ~ * & & $ # # # ",
"# # # # # # # # # # ! % & & & & & & 3 : = [ [ ( _ o C D E z z z z F G C o ( [ > 4 , ~ & & ! # # ",
"# # # # # # # # # ! & & & & & & 3 * , 6 6 H ; / I J 6 J K L z z M N O ; b P _ [ ( 5 ; 4 & % # # ",
"# # # # # # # # $ & & & & a 3 ~ ~ 4 ( Q R S T P U V W X Y Z ` z  ...+.@.#.$.g / } ] B _ ~ & ! # ",
"# # # # # # # % & & & a * ~ ~ ~ 4 [ 5 1 %.&.*.=.-.;.>.,.z z z z z z z '.).!.~.n {.].^.D 4 a % # ",
"# # # # # ! % & a 3 ~ ~ ~ ~ ~ 4 [ [ o ] /.(.z _.:.z z z z z z z z z z z z f <.[.}.|.1.| f * & # ",
"# # # # % & a * ~ ~ ~ ~ ~ ~ 4 [ [ 5 C ; 2.3.4.z z z z z z z z z z z z z z z z 5.z 6.7.8.> ~ & $ ",
"# # $ & a : ~ ~ ~ ~ ~ ~ ~ > [ [ 5 J 9.0.a.b.z z z z z z z z z z z z z z z z z z c.d.m o { ~ a % ",
"% & a f } [ [ = f 4 4 > { [ ( _ } m e.f.g.z z z z z z z z z z z z z z z z z z z h.i.j.} 5 , a & ",
"& 3 : ( i - _ _ _ 8.] _ o o o 8.C D k.l.z z z z z z z z z z z z z z z z z z z z z m.n.o.p.> 3 & ",
"* ~ > 5 i q.b 6 C r.s.] / 8./ C t.u.v.w.z z z z z z z z z z z z z z z z z z z z z z x.y.z.5 3 & ",
"~ ~ { _ 6 A.B.C.D.B E.U F.; b t.q.G.H.z z z z z z z z z z z z z z z z z z z z z z z I.J.J { 3 & ",
"~ , ( o 9 q.K.L.M.N.O.P.Q.R.D.q.r.S.T.z z z z z z z z z z z z z z z z z z z z z z z U.V.9 > 3 & ",
"~ = _ o I s.W.X.Y.Z.z z z `. +2 .+++z z z z z z z z z z z z z z z z z z z z z z z z @+#+$+f 3 & ",
"> o } - h %+&+*+z z z z z z =+-+;+>+z z z z z z z z z z z z z z z z z z z z z z z z ,+'+g , 3 & ",
"- 1 t.Q )+!+z z z z z z z z z ~+{+z z z z z z z z z z z z z z z z z z z z z z z z z ]+^+5 ~ 3 & ",
"- e /+(+(+_+z z z z z z z z z z :+z z z z z z z z z z z z z z z z z z z z z z z z z <+6 { ~ 3 & ",
"w [+}+|+1+2+z z z z z z z z z z 3+z z z z z z z z z z z z z z z z z z z z z z z z 4+5+_ = ~ 3 & ",
"6+7+8+z 9+z z z z z z z z z z z z z z z z z z z z z z z z z z z z z z z z z z z 0+a+C 5 = ~ 3 & ",
"2 b+c+z d+z z z z z z z z z z z z z z z z z z z z z z z z z z z z z z z z z z z e+f+- 5 = ~ 3 & ",
"I i g+h+i+j+z z z z z z z z z z k+z z z z z z z z z z z z z z z z z z z z z z z z l+m+8.= ~ 3 & ",
"] n+D o+p+q+z z z z z z z z z r+s+z z z z z z z z z z z z z z z z z z z z z z z z z t+8 [ ~ 3 & ",
"8.g 9 g U u+v+z z z z z z z z w+x+y+z z z z z z z z z z z z z z z z z z z z z z z z z+A+_ : 3 & ",
": ( o / o+B+C+D+z z z z z z E+F+G+H+z z z z z z z z z z z z z z z z z z z z z z z z y+I+s.4 3 & ",
"~ 4 5 o ] H J+y+K+L+M+N+O+P+Q+O e R+z z z z z z z z z z z z z z z z z z z z z z z z S+T+U+> 3 & ",
"~ ~ [ _ ] D V+W+X+F+Y+Z+`+2 P Q s. @.@z z z z z z z z z z z z z z z z z z z z z z z [ +@/ = 3 & ",
"~ ~ { 5 | 8 @@o+g #@$@D %@- 9 ] P &@*@z z z z z z z z z z z z z z z z z z z z z z z =@-@;@( 3 & ",
"3 ~ f 5 >@; } o 8.P 1 } o o o / ] ,@'@)@z z z z z z z z z z z z z z z z z z z z z z !@~@{@[ 3 & ",
"& a ~ [ w 8.( [ [ ( ( ( ( 5 _ o / 6 ]@^@/@z z z z z z z z z z z z z z z z z z z z (@_@] - f 3 & ",
"! % & 3 f f f , ~ ~ ~ : f [ [ ( o 2 :@<@[@z z z z z z z z z z z z z z z z z z z }@|@P 8.[ ~ a & ",
"# # # % & a * ~ ~ ~ ~ ~ ~ : { [ [ 8.D B 1@2@% z z z z z z z z z z z z z z z z z 3@4@^.o = ~ & % ",
"# # # # ! % & a * ~ ~ ~ ~ ~ ~ { [ ( } - 5@6@z 7@z z z z z z z z z z z z z z 8@9@z 0@$@P f * & ! ",
"# # # # # # $ & & & 3 * ~ ~ ~ ~ { [ _ a@b@c@d@e@f@g@z z z z z z z z z z h@i@j@k@l@m@n@r.4 3 % # ",
"# # # # # # # ! % & & & a * ~ ~ ~ { 5 m o@p@q@8 r@s@t@u@v@w@z z x@y@z@A@B@C@w 6 D@P E@- , & $ # ",
"# # # # # # # # # % & & & & & 3 ~ ~ { 1 [+F@D.- q.G@H@I@J@K@L@z M@N@O@P@Q@R@/ _ _ } | ( a & # # ",
"# # # # # # # # # # % & & & & & & 3 ~ = 5 } 8.o 8./ b m S@T@z z z U@O - / _ [ [ [ { ( * & $ # # ",
"# # # # # # # # # # # % & & & & & & & * , = [ [ 5 o / H V@M z z z W@X@/ _ [ > , ~ ~ 3 & % # # # ",
"# # # # # # # # # # # # $ & & & & & & & a * , = [ ( 8.; Y@Z@z z `@ #.#/ [ : ~ ~ * a & & ! # # # ",
"# # # # # # # # # # # # # ! & & & & & & & & * ~ : = _ +#u @###$#%#&#*#_ , ~ ~ 3 & & & $ # # # # ",
"# # # # # # # # # # # # # # ! % & & & & & & & * ~ ~ f o =#m -#;#>#I / = ~ * a & & & % # # # # # ",
"# # # # # # # # # # # # # # # # % & & & & & & & * ~ ~ = o C J ,#1 C 5 4 * & & & & % # # # # # '#"};
